<svg xmlns="http://www.w3.org/2000/svg" viewBox="0 0 1280 720">
  <defs>
    <radialGradient id="glow" cx="18%" cy="22%" r="70%">
      <stop offset="0%" stop-color="#ff3d52" stop-opacity="0.26"/>
      <stop offset="55%" stop-color="#ff3d52" stop-opacity="0.06"/>
      <stop offset="100%" stop-color="#ff3d52" stop-opacity="0"/>
    </radialGradient>
  </defs>
  <rect width="1280" height="720" fill="#000000"/>
  <rect width="1280" height="720" fill="url(#glow)"/>
  <g transform="translate(140.8,225.6) scale(2.4000)">
  <rect x="2" y="2" width="72" height="72" rx="16" fill="#000000" stroke="#ff3d52" stroke-width="4"/>
  <g fill="#ff3d52"><path transform="translate(12.34 51.00) scale(0.016602 -0.016602)" d="M439 0L47 0L544 1490L1017 1490L1529 0L1133 0L926 651Q876 814 829.500 997.500Q783 1181 736 1378L815 1378Q770 1180 728 996.500Q686 813 639 651ZM1192 317L385 317L385 587L1192 587Z"/><path transform="translate(37.50 51.00) scale(0.016602 -0.016602)" d="M1031 0L559 0L47 1490L444 1490L651 839Q700 677 745.500 499Q791 321 837 124L760 124Q805 322 848 499.500Q891 677 938 839L1137 1490L1529 1490Z"/></g>
  <g fill="#f4f3ee"><path transform="translate(102.00 51.00) scale(0.020508 -0.020508)" d="M440-22Q334-22 249.500 15.500Q165 53 116.500 127.500Q68 202 68 313Q68 406 102.500 469Q137 532 196.500 570Q256 608 331.500 628Q407 648 490 656Q587 666 646.500 674.500Q706 683 733.500 701.500Q761 720 761 756L761 761Q761 809 741 842Q721 875 681.500 892.500Q642 910 586 910Q528 910 485 892.500Q442 875 415 846Q388 817 375 781L100 826Q129 924 196 992Q263 1060 362.500 1096Q462 1132 587 1132Q677 1132 762 1110.500Q847 1089 914.500 1044Q982 999 1021.500 926.500Q1061 854 1061 753L1061 0L777 0L777 155L767 155Q740 103 695 63.500Q650 24 586.500 1Q523-22 440-22ZM525 189Q596 189 649.500 217Q703 245 733 293Q763 341 763 400L763 521Q750 511 723 503Q696 495 663 489Q630 483 598 478Q566 473 541 470Q486 462 444 444Q402 426 379 396.500Q356 367 356 321Q356 278 378 248.500Q400 219 438 204Q476 189 525 189Z"/><path transform="translate(125.42 51.00) scale(0.020508 -0.020508)" d="M666 0L361 0L31 1118L346 1118L443 705Q468 594 497 463.500Q526 333 550 175L516 175Q542 329 573 460.500Q604 592 631 705L733 1118L1009 1118L1109 705Q1134 592 1165 461.500Q1196 331 1223 175L1189 175Q1213 330 1240.500 460.500Q1268 591 1294 705L1391 1118L1710 1118L1378 0L1073 0L949 431Q931 496 913 574.500Q895 653 878 734.500Q861 816 843 887L896 887Q879 816 861.500 734.500Q844 653 826 574Q808 495 790 431Z"/><path transform="translate(160.16 51.00) scale(0.020508 -0.020508)" d="M633-22Q462-22 338 48Q214 118 147.500 247Q81 376 81 553Q81 726 147 856Q213 986 334 1059Q455 1132 618 1132Q728 1132 823 1097Q918 1062 990 991.500Q1062 921 1102.500 815Q1143 709 1143 565L1143 481L204 481L204 669L996 669L856 619Q856 706 829.500 770.500Q803 835 750.500 870.500Q698 906 621 906Q543 906 488.500 870Q434 834 406 772.500Q378 711 378 632L378 499Q378 402 410.500 336Q443 270 501.500 237Q560 204 638 204Q691 204 734 219Q777 234 807.500 263.500Q838 293 854 336L1126 285Q1099 193 1032 123.500Q965 54 864.500 16Q764-22 633-22Z"/><path transform="translate(184.21 51.00) scale(0.020508 -0.020508)" d="M572-22Q437-22 333 16.500Q229 55 163 128.500Q97 202 78 306L357 354Q379 276 434 237Q489 198 581 198Q667 198 716.500 230.500Q766 263 766 313Q766 357 730.500 385Q695 413 622 428L429 468Q267 501 187 580.500Q107 660 107 785Q107 893 166 970.500Q225 1048 330 1090Q435 1132 577 1132Q709 1132 806 1095.500Q903 1059 963 992Q1023 925 1043 834L777 787Q760 844 711.500 880.500Q663 917 581 917Q507 917 457 886Q407 855 407 803Q407 761 439.500 732Q472 703 551 687L752 647Q914 614 993 539.500Q1072 465 1072 345Q1072 235 1008 152.500Q944 70 831.500 24Q719-22 572-22Z"/><path transform="translate(206.77 51.00) scale(0.020508 -0.020508)" d="M628-22Q460-22 337 50.500Q214 123 147.500 252.500Q81 382 81 554Q81 728 147.500 857.500Q214 987 337 1059.500Q460 1132 628 1132Q797 1132 919.500 1059.500Q1042 987 1108.500 857.500Q1175 728 1175 554Q1175 382 1108.500 252.500Q1042 123 919.500 50.500Q797-22 628-22ZM628 214Q708 214 762 258.500Q816 303 843 380.500Q870 458 870 555Q870 654 843 731Q816 808 762 852Q708 896 628 896Q548 896 494.500 852Q441 808 414 731Q387 654 387 555Q387 458 414 380.500Q441 303 494.500 258.500Q548 214 628 214Z"/><path transform="translate(231.56 51.00) scale(0.020508 -0.020508)" d="M428 0L128 0L128 1118L406 1118L421 840L399 840Q425 943 475.500 1008Q526 1073 594 1104Q662 1135 737 1135Q858 1135 932 1058.500Q1006 982 1041 822L1006 822Q1031 929 1087.500 998.500Q1144 1068 1221.500 1101.500Q1299 1135 1384 1135Q1487 1135 1567.500 1090Q1648 1045 1694.500 960.500Q1741 876 1741 754L1741 0L1441 0L1441 697Q1441 792 1389.500 838Q1338 884 1263 884Q1207 884 1165.500 859.500Q1124 835 1101.500 791Q1079 747 1079 688L1079 0L789 0L789 705Q789 787 740.500 835.500Q692 884 615 884Q562 884 519.500 860Q477 836 452.500 789.500Q428 743 428 676Z"/><path transform="translate(268.92 51.00) scale(0.020508 -0.020508)" d="M633-22Q462-22 338 48Q214 118 147.500 247Q81 376 81 553Q81 726 147 856Q213 986 334 1059Q455 1132 618 1132Q728 1132 823 1097Q918 1062 990 991.500Q1062 921 1102.500 815Q1143 709 1143 565L1143 481L204 481L204 669L996 669L856 619Q856 706 829.500 770.500Q803 835 750.500 870.500Q698 906 621 906Q543 906 488.500 870Q434 834 406 772.500Q378 711 378 632L378 499Q378 402 410.500 336Q443 270 501.500 237Q560 204 638 204Q691 204 734 219Q777 234 807.500 263.500Q838 293 854 336L1126 285Q1099 193 1032 123.500Q965 54 864.500 16Q764-22 633-22Z"/></g>
  <g fill="#ff3d52"><path transform="translate(294.78 51.00) scale(0.021000 -0.021000)" d="M178-18Q104-18 64 20Q24 58 28 115Q31 161 59.500 200.500Q88 240 138 263.500Q188 287 254 287Q331 287 366.500 248Q402 209 398 150Q396 105 368 67Q340 29 291.500 5.500Q243-18 178-18Z"/><path transform="translate(305.78 51.00) scale(0.021000 -0.021000)" d="M1159 754Q1159 626 1123 510Q1087 394 1022 296.500Q957 199 868 127Q779 55 673 15.500Q567-24 451-24Q344-24 283.500 25Q223 74 225 169Q226 249 260 313.500Q294 378 346 432Q398 486 455 534Q512 582 559.500 627Q607 672 631 719L630 672Q568 672 513.500 685Q459 698 411 715Q363 732 318 746Q273 760 231 761Q194 761 174.500 744.500Q155 728 154 703Q152 670 195 646Q224 630 236.500 614Q249 598 249 573Q248 537 224 517Q200 497 168 497Q115 497 81 543Q47 589 50 671Q53 750 89 812.500Q125 875 188.500 911Q252 947 335 947Q381 947 425.500 936Q470 925 509.500 914Q549 903 580 903Q615 903 633.500 914Q652 925 666.500 936.500Q681 948 704 947Q727 946 737 930Q747 914 744 879Q737 828 716.500 767.500Q696 707 670 640.500Q644 574 619 505.500Q594 437 578 369.500Q562 302 562 239Q562 174 586 144Q610 114 651 114Q697 114 749 152Q801 190 847.500 254.500Q894 319 923 397.500Q952 476 952 557Q952 602 942.500 633.500Q933 665 910 693Q888 720 876.500 744.500Q865 769 866 802Q866 842 885 874.500Q904 907 936.500 926.500Q969 946 1012 946Q1081 946 1120 898.500Q1159 851 1159 754Z"/><path transform="translate(330.52 51.00) scale(0.021000 -0.021000)" d="M546 674L408 293Q381 217 388.500 187Q396 157 420 157Q435 157 451.500 166Q468 175 491 197Q510 214 522.500 218Q535 222 546 216Q560 209 560.500 190Q561 171 546 142Q506 67 428 22Q350-23 251-23Q176-23 139.500 8.500Q103 40 102 99Q101 158 130 240L274 630Q302 705 294.500 735Q287 765 262 765Q247 765 230.500 756.500Q214 748 190 725Q172 709 159.500 705Q147 701 136 707Q122 714 121.500 733Q121 752 136 780Q176 855 253 900.500Q330 946 427 946Q495 946 532 915Q569 884 573.500 823Q578 762 546 674ZM497 1106Q419 1106 378 1145.500Q337 1185 341 1242Q344 1288 372.500 1327.500Q401 1367 450 1391.500Q499 1416 565 1416Q647 1416 685 1376Q723 1336 718 1279Q716 1231 687 1191.500Q658 1152 609.500 1129Q561 1106 497 1106Z"/><path transform="translate(344.38 51.00) scale(0.021000 -0.021000)" d="M981 781L813 756Q805 801 781 823.500Q757 846 709 846Q652 846 596.500 812Q541 778 492 719.500Q443 661 404.500 587Q366 513 343 432.500Q320 352 318 275Q315 194 341 160Q367 126 411 126Q447 126 490.500 154Q534 182 577.500 233.500Q621 285 659 355.500Q697 426 722 511L906 1128Q954 1290 1050 1364Q1146 1438 1276 1438Q1371 1438 1417 1399.500Q1463 1361 1463 1308Q1463 1249 1430 1213Q1397 1177 1336 1177Q1301 1177 1276.500 1190.500Q1252 1204 1231.500 1221.500Q1211 1239 1189 1252.500Q1167 1266 1139 1266Q1098 1266 1070.500 1236Q1043 1206 1039 1163Q1039 1138 1047.500 1112.500Q1056 1087 1067.500 1059.500Q1079 1032 1088.500 1000.500Q1098 969 1099.500 931Q1101 893 1088 846L926 293Q904 215 911 185Q918 155 942 155Q957 155 973 163.500Q989 172 1013 195Q1032 211 1044.500 215Q1057 219 1068 213Q1082 206 1082.500 187Q1083 168 1068 139Q1042 90 999 53.500Q956 17 903-3.500Q850-24 795-24Q726-24 693 11Q660 46 660 108Q660 139 666.500 178Q673 217 687 272Q701 327 724 404L758 386Q700 247 623.500 156Q547 65 461 20.500Q375-24 287-24Q199-24 140.500 13Q82 50 57.500 124Q33 198 45 311Q58 438 116.500 553Q175 668 269 756.500Q363 845 483 895.500Q603 946 739 946Q816 946 868 924.500Q920 903 948.500 865.500Q977 828 981 781Z"/><path transform="translate(368.70 51.00) scale(0.021000 -0.021000)" d="M208 335L199 416Q199 416 235 428Q271 440 329 460Q387 480 453.500 503Q520 526 584 548Q648 570 695 586L666 551Q675 580 680.500 619.500Q686 659 687 710Q687 772 662.500 810.500Q638 849 596 849Q555 849 513 818Q471 787 434 731Q397 675 371.500 598.500Q346 522 339 432Q327 286 380 212.500Q433 139 536 139Q595 139 647.500 160Q700 181 744 221.500Q788 262 816 318Q836 344 850.500 353.500Q865 363 882 362Q902 362 913.500 344.500Q925 327 916 289Q898 209 836.500 137Q775 65 671 20.500Q567-24 421-24Q290-24 206 22.500Q122 69 86 155Q50 241 59 360Q68 481 117 587Q166 693 246.500 774Q327 855 430 901Q533 947 649 947Q738 947 797 914.500Q856 882 887 826.500Q918 771 924 703Q926 685 933.500 672Q941 659 954 657Q969 656 976.500 648.500Q984 641 984 627Q984 609 969 593Q954 577 911 563Q869 550 801 528Q733 506 654 480.500Q575 455 496 429Q417 403 351.500 382Q286 361 247 348Q208 335 208 335Z"/><path transform="translate(390.12 51.00) scale(0.021000 -0.021000)" d="M648 948Q788 946 885 886.500Q982 827 1023.500 719.500Q1065 612 1038 463Q1017 353 965 262Q913 171 835.500 106.500Q758 42 661 8Q564-26 453-24Q315-22 219 37Q123 96 82 204Q41 312 67 460Q88 571 140 662Q192 753 268.500 817.500Q345 882 441.500 916Q538 950 648 948ZM450 81Q486 77 521 90Q556 103 588.500 133.500Q621 164 649 211Q677 258 700.500 321Q724 384 741 462Q768 584 764.500 666.500Q761 749 732 792.500Q703 836 651 842Q615 847 581 833.500Q547 820 515 789.500Q483 759 455 712.500Q427 666 404 603Q381 540 364 461Q337 340 340 257.500Q343 175 371.500 131.500Q400 88 450 81Z"/></g>
</g>
  <g fill="#ffb4be" opacity="0.92"><path transform="translate(185.92 508.80) scale(0.017500 -0.017500)" d="M541 1426Q601 1426 672 1415Q743 1404 816 1388Q889 1372 956.500 1355.500Q1024 1339 1078.500 1328Q1133 1317 1166 1317Q1200 1317 1218.500 1329.500Q1237 1342 1244 1366Q1249 1383 1249 1402.500Q1249 1422 1251 1444Q1258 1488 1285.500 1516.500Q1313 1545 1368 1545Q1413 1545 1443 1512.500Q1473 1480 1472 1416Q1471 1320 1406.500 1262Q1342 1204 1235 1204Q1189 1204 1121 1217Q1053 1230 975 1249Q897 1268 819 1287Q741 1306 673 1319Q605 1332 559 1332Q485 1332 452.500 1304.500Q420 1277 418 1226Q417 1202 423 1182.500Q429 1163 435 1144Q441 1125 441 1100Q440 1057 409.500 1027Q379 997 329 997Q270 998 235 1040.500Q200 1083 203 1157Q205 1232 244.500 1293Q284 1354 358.500 1390Q433 1426 541 1426ZM705 172Q696 143 704 129Q712 115 731 110L796 94Q836 78 833 50Q831 24 812 12Q793 0 762 0L295 0Q264 0 250.500 12Q237 24 238 43Q238 64 252 77Q266 90 288 98L352 112Q372 117 387.500 135.500Q403 154 415 191Q427 229 448 301.500Q469 374 495 467.500Q521 561 550 666Q579 771 607.500 876Q636 981 662.500 1075.500Q689 1170 709 1243.500Q729 1317 741 1358L1017 1306Q1003 1263 982 1189Q961 1115 935.500 1021.500Q910 928 882 824.500Q854 721 826.500 620Q799 519 775 429Q751 339 732.500 272Q714 205 705 172Z"/><path transform="translate(216.33 508.80) scale(0.017500 -0.017500)" d="M402 387Q435 478 478 547Q521 616 568 663Q615 710 660 734Q705 758 742 758Q791 758 800 720.500Q809 683 778 594L653 238Q625 157 627 98Q629 39 665.500 7.500Q702-24 776-24Q876-24 953.500 21.500Q1031 67 1071 141Q1086 170 1086 189Q1086 208 1072 215Q1060 221 1048 217Q1036 213 1017 197Q993 175 977 166Q961 157 946 157Q921 157 914 187Q907 217 933 292L1056 641Q1088 734 1089 802Q1090 870 1051 908Q1012 946 924 946Q847 946 753.500 907.500Q660 869 568 779Q476 689 402 534L423 527L577 1066Q601 1153 634 1208.500Q667 1264 708 1290Q749 1316 798 1316Q835 1316 869.500 1292.500Q904 1269 939 1238Q974 1207 1012 1183.500Q1050 1160 1094 1160Q1159 1160 1196.500 1197.500Q1234 1235 1234 1289Q1234 1355 1164 1396.500Q1094 1438 955 1438Q772 1438 638.500 1380.500Q505 1323 417 1211Q329 1099 283 936L64 164Q47 105 47.500 63Q48 21 71-1.500Q94-24 143-24Q247-24 306.500 6Q366 36 366 86Q366 115 358 136.500Q350 158 350 186Q350 206 356 234.500Q362 263 373.500 301.500Q385 340 402 387Z"/><path transform="translate(246.91 508.80) scale(0.017500 -0.017500)" d="M208 335L199 416Q199 416 235 428Q271 440 329 460Q387 480 453.500 503Q520 526 584 548Q648 570 695 586L666 551Q675 580 680.500 619.500Q686 659 687 710Q687 772 662.500 810.500Q638 849 596 849Q555 849 513 818Q471 787 434 731Q397 675 371.500 598.500Q346 522 339 432Q327 286 380 212.500Q433 139 536 139Q595 139 647.500 160Q700 181 744 221.500Q788 262 816 318Q836 344 850.500 353.500Q865 363 882 362Q902 362 913.500 344.500Q925 327 916 289Q898 209 836.500 137Q775 65 671 20.500Q567-24 421-24Q290-24 206 22.500Q122 69 86 155Q50 241 59 360Q68 481 117 587Q166 693 246.500 774Q327 855 430 901Q533 947 649 947Q738 947 797 914.500Q856 882 887 826.500Q918 771 924 703Q926 685 933.500 672Q941 659 954 657Q969 656 976.500 648.500Q984 641 984 627Q984 609 969 593Q954 577 911 563Q869 550 801 528Q733 506 654 480.500Q575 455 496 429Q417 403 351.500 382Q286 361 247 348Q208 335 208 335Z"/><path transform="translate(291.36 508.80) scale(0.017500 -0.017500)" d="M546 674L408 293Q381 217 388.500 187Q396 157 420 157Q435 157 451.500 166Q468 175 491 197Q510 214 522.500 218Q535 222 546 216Q560 209 560.500 190Q561 171 546 142Q506 67 428 22Q350-23 251-23Q176-23 139.500 8.500Q103 40 102 99Q101 158 130 240L274 630Q302 705 294.500 735Q287 765 262 765Q247 765 230.500 756.500Q214 748 190 725Q172 709 159.500 705Q147 701 136 707Q122 714 121.500 733Q121 752 136 780Q176 855 253 900.500Q330 946 427 946Q495 946 532 915Q569 884 573.500 823Q578 762 546 674ZM497 1106Q419 1106 378 1145.500Q337 1185 341 1242Q344 1288 372.500 1327.500Q401 1367 450 1391.500Q499 1416 565 1416Q647 1416 685 1376Q723 1336 718 1279Q716 1231 687 1191.500Q658 1152 609.500 1129Q561 1106 497 1106Z"/><path transform="translate(312.78 508.80) scale(0.017500 -0.017500)" d="M132 707Q118 714 118 733Q118 752 133 780Q174 855 252.500 900.500Q331 946 431 946Q496 946 532 919Q568 892 568 839Q568 808 554.500 768Q541 728 519 677Q497 626 470.500 561Q444 496 418 415L404 445Q461 587 531.500 683.500Q602 780 678 838Q754 896 828.500 921Q903 946 966 946Q1054 946 1093 908.500Q1132 871 1131.500 802.500Q1131 734 1098 641L976 292Q949 217 956.500 187Q964 157 988 157Q1003 157 1019 166Q1035 175 1059 197Q1078 213 1090 217Q1102 221 1114 215Q1128 208 1128 189Q1128 170 1114 141Q1073 67 995.500 21.500Q918-24 819-24Q744-24 707.500 7.500Q671 39 669 98Q667 157 696 238L820 594Q853 682 843 720Q833 758 784 758Q748 758 703 734Q658 710 611 663.500Q564 617 521 547.500Q478 478 445 387Q424 330 411 292Q398 254 392.500 229.500Q387 205 387 188Q387 159 396.500 138Q406 117 406 88Q406 37 347 6.500Q288-24 185-24Q107-24 90.500 30Q74 84 112 189L271 630Q298 705 290.500 735Q283 765 259 765Q244 765 227.500 756.500Q211 748 187 725Q168 709 156 705Q144 701 132 707Z"/><path transform="translate(344.10 508.80) scale(0.017500 -0.017500)" d="M981 781L813 756Q805 801 781 823.500Q757 846 709 846Q652 846 596.500 812Q541 778 492 719.500Q443 661 404.500 587Q366 513 343 432.500Q320 352 318 275Q315 194 341 160Q367 126 411 126Q447 126 490.500 154Q534 182 577.500 233.500Q621 285 659 355.500Q697 426 722 511L906 1128Q954 1290 1050 1364Q1146 1438 1276 1438Q1371 1438 1417 1399.500Q1463 1361 1463 1308Q1463 1249 1430 1213Q1397 1177 1336 1177Q1301 1177 1276.500 1190.500Q1252 1204 1231.500 1221.500Q1211 1239 1189 1252.500Q1167 1266 1139 1266Q1098 1266 1070.500 1236Q1043 1206 1039 1163Q1039 1138 1047.500 1112.500Q1056 1087 1067.500 1059.500Q1079 1032 1088.500 1000.500Q1098 969 1099.500 931Q1101 893 1088 846L926 293Q904 215 911 185Q918 155 942 155Q957 155 973 163.500Q989 172 1013 195Q1032 211 1044.500 215Q1057 219 1068 213Q1082 206 1082.500 187Q1083 168 1068 139Q1042 90 999 53.500Q956 17 903-3.500Q850-24 795-24Q726-24 693 11Q660 46 660 108Q660 139 666.500 178Q673 217 687 272Q701 327 724 404L758 386Q700 247 623.500 156Q547 65 461 20.500Q375-24 287-24Q199-24 140.500 13Q82 50 57.500 124Q33 198 45 311Q58 438 116.500 553Q175 668 269 756.500Q363 845 483 895.500Q603 946 739 946Q816 946 868 924.500Q920 903 948.500 865.500Q977 828 981 781Z"/><path transform="translate(374.17 508.80) scale(0.017500 -0.017500)" d="M208 335L199 416Q199 416 235 428Q271 440 329 460Q387 480 453.500 503Q520 526 584 548Q648 570 695 586L666 551Q675 580 680.500 619.500Q686 659 687 710Q687 772 662.500 810.500Q638 849 596 849Q555 849 513 818Q471 787 434 731Q397 675 371.500 598.500Q346 522 339 432Q327 286 380 212.500Q433 139 536 139Q595 139 647.500 160Q700 181 744 221.500Q788 262 816 318Q836 344 850.500 353.500Q865 363 882 362Q902 362 913.500 344.500Q925 327 916 289Q898 209 836.500 137Q775 65 671 20.500Q567-24 421-24Q290-24 206 22.500Q122 69 86 155Q50 241 59 360Q68 481 117 587Q166 693 246.500 774Q327 855 430 901Q533 947 649 947Q738 947 797 914.500Q856 882 887 826.500Q918 771 924 703Q926 685 933.500 672Q941 659 954 657Q969 656 976.500 648.500Q984 641 984 627Q984 609 969 593Q954 577 911 563Q869 550 801 528Q733 506 654 480.500Q575 455 496 429Q417 403 351.500 382Q286 361 247 348Q208 335 208 335Z"/><path transform="translate(401.41 508.80) scale(0.017500 -0.017500)" d="M497 471L563 449Q539 322 501.500 232Q464 142 414.500 85.500Q365 29 306.500 2.500Q248-24 184-24Q96-24 52 27Q8 78 9 162Q10 252 50 307Q90 362 148 362Q193 362 219.500 333Q246 304 246 255Q246 233 241 210Q236 187 236 164Q236 142 248 130Q260 118 282 118Q311 118 348 148.500Q385 179 425 255.500Q465 332 497 471ZM723 711L733 288Q734 219 757.500 183.500Q781 148 823 148Q860 148 888 165.500Q916 183 949 223Q972 248 985 257Q998 266 1015 265Q1033 263 1041 249Q1049 235 1040 207Q1023 150 978 97Q933 44 868.500 10Q804-24 727-24Q650-24 599.500 6.500Q549 37 523 97Q497 157 492 246L479 659Q478 725 456 755Q434 785 398 785Q367 785 335.500 767Q304 749 266 700Q252 682 241 674.500Q230 667 216 668Q198 670 189.500 685.500Q181 701 191 734Q209 786 254 835Q299 884 366 915.500Q433 947 516 947Q585 947 630 917.500Q675 888 698.500 835.500Q722 783 723 711ZM716 408L659 428Q683 563 723 661Q763 759 815 822.500Q867 886 926.500 916Q986 946 1049 946Q1132 946 1175 894Q1218 842 1218 761Q1218 663 1175.500 610.500Q1133 558 1075 558Q1034 558 1009 582.500Q984 607 985 648Q986 668 994 696.500Q1002 725 1002 751Q1002 769 990 781Q978 793 954 793Q926 793 894.500 771Q863 749 831.500 703Q800 657 770.500 583.500Q741 510 716 408Z"/><path transform="translate(449.21 508.80) scale(0.017500 -0.017500)" d="M631 740L399 740L446 866L682 866Q717 866 735.500 856Q754 846 754 819Q754 798 738.500 780Q723 762 695.500 751Q668 740 631 740ZM102 818Q102 840 119 854Q136 868 171 868L281 868L323 1047Q366 1233 465.500 1332Q565 1431 736 1431Q839 1431 890 1388Q941 1345 941 1288Q941 1227 906 1190.500Q871 1154 814 1154Q778 1154 747 1170.500Q716 1187 688.500 1208Q661 1229 634 1245.500Q607 1262 578 1262Q538 1262 511 1235.500Q484 1209 474 1166Q468 1132 479.500 1091.500Q491 1051 508 1007Q525 963 535 918Q545 873 533 830L301-34Q294-64 290-87.500Q286-111 286-129Q286-158 302-176Q318-194 333.500-210.500Q349-227 349-252Q349-287 310.500-319Q272-351 211.500-370.500Q151-390 84-390Q10-390-11.500-338Q-33-286-4-184L227 628Q244 690 231.500 718Q219 746 163 757Q125 774 113.500 788.500Q102 803 102 818Z"/><path transform="translate(470.75 508.80) scale(0.017500 -0.017500)" d="M648 948Q788 946 885 886.500Q982 827 1023.500 719.500Q1065 612 1038 463Q1017 353 965 262Q913 171 835.500 106.500Q758 42 661 8Q564-26 453-24Q315-22 219 37Q123 96 82 204Q41 312 67 460Q88 571 140 662Q192 753 268.500 817.500Q345 882 441.500 916Q538 950 648 948ZM450 81Q486 77 521 90Q556 103 588.500 133.500Q621 164 649 211Q677 258 700.500 321Q724 384 741 462Q768 584 764.500 666.500Q761 749 732 792.500Q703 836 651 842Q615 847 581 833.500Q547 820 515 789.500Q483 759 455 712.500Q427 666 404 603Q381 540 364 461Q337 340 340 257.500Q343 175 371.500 131.500Q400 88 450 81Z"/><path transform="translate(499.57 508.80) scale(0.017500 -0.017500)" d="M127 707Q113 714 112.500 733Q112 752 127 780Q154 830 198.500 867.500Q243 905 300 925.500Q357 946 421 946Q480 946 511.500 918.500Q543 891 543 838Q543 798 526.500 746Q510 694 488 638Q466 582 448 529.500Q430 477 427 437L409 440Q444 565 494 660Q544 755 602.500 818.500Q661 882 723.500 914Q786 946 844 946Q927 946 970 897.500Q1013 849 1010 769Q1008 705 983.500 658.500Q959 612 920.500 588Q882 564 838 564Q788 564 766 586Q744 608 744 636Q744 660 751.500 682Q759 704 759 727Q759 750 747.500 763.500Q736 777 714 777Q677 777 631.500 734.500Q586 692 538 604.500Q490 517 446 381Q422 311 411.500 269Q401 227 401 192Q401 164 413 149.500Q425 135 437 121.500Q449 108 449 80Q449 51 421 27Q393 3 338.500-10.500Q284-24 202-24Q145-24 118 0Q91 24 91.500 71.500Q92 119 116 187L267 630Q293 705 285.500 735Q278 765 253 765Q239 765 222.500 756.500Q206 748 182 725Q163 709 150.500 705Q138 701 127 707Z"/><path transform="translate(543.60 508.80) scale(0.017500 -0.017500)" d="M620 992L274-267Q263-312 269.500-333.500Q276-355 312-362L373-373Q401-378 413-390.500Q425-403 425-420Q425-442 406.500-456Q388-470 358-471L-92-481Q-117-482-131-469.500Q-145-457-145-438Q-145-420-133.500-406Q-122-392-94-378Q-62-367-44.500-355.500Q-27-344-16.500-328.500Q-6-313 1-289L363 983Q371 1014 386.500 1037.500Q402 1061 422.500 1079Q443 1097 466 1109Q489 1121 513 1127Q537 1133 558 1133Q610 1133 625 1098.500Q640 1064 620 992ZM190 661Q170 645 149 641.500Q128 638 114 653Q100 667 108 692Q116 717 141 740Q209 806 293.500 853Q378 900 478 925Q578 950 691 947Q828 944 922 887Q1016 830 1058 722Q1100 614 1079 459Q1060 310 986.500 200Q913 90 802.500 31.500Q692-27 562-24Q444-21 370.500 27.500Q297 76 274 154L351 192Q374 144 410 118Q446 92 496 90Q565 87 626.500 129Q688 171 734.500 262Q781 353 803 493Q820 605 804 681.500Q788 758 746 799Q704 840 641 845Q538 855 423 812Q308 769 190 661Z"/><path transform="translate(573.51 508.80) scale(0.017500 -0.017500)" d="M208 335L199 416Q199 416 235 428Q271 440 329 460Q387 480 453.500 503Q520 526 584 548Q648 570 695 586L666 551Q675 580 680.500 619.500Q686 659 687 710Q687 772 662.500 810.500Q638 849 596 849Q555 849 513 818Q471 787 434 731Q397 675 371.500 598.500Q346 522 339 432Q327 286 380 212.500Q433 139 536 139Q595 139 647.500 160Q700 181 744 221.500Q788 262 816 318Q836 344 850.500 353.500Q865 363 882 362Q902 362 913.500 344.500Q925 327 916 289Q898 209 836.500 137Q775 65 671 20.500Q567-24 421-24Q290-24 206 22.500Q122 69 86 155Q50 241 59 360Q68 481 117 587Q166 693 246.500 774Q327 855 430 901Q533 947 649 947Q738 947 797 914.500Q856 882 887 826.500Q918 771 924 703Q926 685 933.500 672Q941 659 954 657Q969 656 976.500 648.500Q984 641 984 627Q984 609 969 593Q954 577 911 563Q869 550 801 528Q733 506 654 480.500Q575 455 496 429Q417 403 351.500 382Q286 361 247 348Q208 335 208 335Z"/><path transform="translate(601.16 508.80) scale(0.017500 -0.017500)" d="M648 948Q788 946 885 886.500Q982 827 1023.500 719.500Q1065 612 1038 463Q1017 353 965 262Q913 171 835.500 106.500Q758 42 661 8Q564-26 453-24Q315-22 219 37Q123 96 82 204Q41 312 67 460Q88 571 140 662Q192 753 268.500 817.500Q345 882 441.500 916Q538 950 648 948ZM450 81Q486 77 521 90Q556 103 588.500 133.500Q621 164 649 211Q677 258 700.500 321Q724 384 741 462Q768 584 764.500 666.500Q761 749 732 792.500Q703 836 651 842Q615 847 581 833.500Q547 820 515 789.500Q483 759 455 712.500Q427 666 404 603Q381 540 364 461Q337 340 340 257.500Q343 175 371.500 131.500Q400 88 450 81Z"/><path transform="translate(630.26 508.80) scale(0.017500 -0.017500)" d="M620 992L274-267Q263-312 269.500-333.500Q276-355 312-362L373-373Q401-378 413-390.500Q425-403 425-420Q425-442 406.500-456Q388-470 358-471L-92-481Q-117-482-131-469.500Q-145-457-145-438Q-145-420-133.500-406Q-122-392-94-378Q-62-367-44.500-355.500Q-27-344-16.500-328.500Q-6-313 1-289L363 983Q371 1014 386.500 1037.500Q402 1061 422.500 1079Q443 1097 466 1109Q489 1121 513 1127Q537 1133 558 1133Q610 1133 625 1098.500Q640 1064 620 992ZM190 661Q170 645 149 641.500Q128 638 114 653Q100 667 108 692Q116 717 141 740Q209 806 293.500 853Q378 900 478 925Q578 950 691 947Q828 944 922 887Q1016 830 1058 722Q1100 614 1079 459Q1060 310 986.500 200Q913 90 802.500 31.500Q692-27 562-24Q444-21 370.500 27.500Q297 76 274 154L351 192Q374 144 410 118Q446 92 496 90Q565 87 626.500 129Q688 171 734.500 262Q781 353 803 493Q820 605 804 681.500Q788 758 746 799Q704 840 641 845Q538 855 423 812Q308 769 190 661Z"/><path transform="translate(659.57 508.80) scale(0.017500 -0.017500)" d="M734 1438Q830 1438 875.500 1397.500Q921 1357 921 1302Q921 1249 890 1216Q859 1183 799 1183Q763 1183 738 1195.500Q713 1208 692 1224.500Q671 1241 649 1253.500Q627 1266 597 1266Q569 1266 547 1252Q525 1238 512.500 1215Q500 1192 497 1163Q496 1138 505.500 1112.500Q515 1087 527 1059.500Q539 1032 548.500 1000Q558 968 559 930Q560 892 546 846L379 305Q353 219 360.500 189Q368 159 398 159Q422 159 448 172.500Q474 186 498 214Q515 229 526 232.500Q537 236 548 231Q562 225 564.500 206.500Q567 188 553 159Q530 107 481 65.500Q432 24 366 0Q300-24 224-24Q147-24 110.500 7Q74 38 72 98Q70 158 97 247L369 1128Q419 1290 512.500 1364Q606 1438 734 1438Z"/><path transform="translate(680.71 508.80) scale(0.017500 -0.017500)" d="M208 335L199 416Q199 416 235 428Q271 440 329 460Q387 480 453.500 503Q520 526 584 548Q648 570 695 586L666 551Q675 580 680.500 619.500Q686 659 687 710Q687 772 662.500 810.500Q638 849 596 849Q555 849 513 818Q471 787 434 731Q397 675 371.500 598.500Q346 522 339 432Q327 286 380 212.500Q433 139 536 139Q595 139 647.500 160Q700 181 744 221.500Q788 262 816 318Q836 344 850.500 353.500Q865 363 882 362Q902 362 913.500 344.500Q925 327 916 289Q898 209 836.500 137Q775 65 671 20.500Q567-24 421-24Q290-24 206 22.500Q122 69 86 155Q50 241 59 360Q68 481 117 587Q166 693 246.500 774Q327 855 430 901Q533 947 649 947Q738 947 797 914.500Q856 882 887 826.500Q918 771 924 703Q926 685 933.500 672Q941 659 954 657Q969 656 976.500 648.500Q984 641 984 627Q984 609 969 593Q954 577 911 563Q869 550 801 528Q733 506 654 480.500Q575 455 496 429Q417 403 351.500 382Q286 361 247 348Q208 335 208 335Z"/><path transform="translate(725.16 508.80) scale(0.017500 -0.017500)" d="M1155 948Q1202 946 1219 885Q1236 824 1206 706Q1157 507 1082 368Q1007 229 910.500 142Q814 55 700.500 15.500Q587-24 461-24Q341-24 279 25Q217 74 218 170Q220 249 255 313.500Q290 378 343.500 432.500Q397 487 455 534.500Q513 582 561.500 627.500Q610 673 633 721L624 672Q562 672 507.500 685.500Q453 699 404.500 716Q356 733 311.500 746.500Q267 760 225 761Q188 762 168.500 745Q149 728 148 703Q146 670 189 646Q217 631 230 614.500Q243 598 242 573Q241 537 217 517.500Q193 498 162 498Q108 498 74.500 543.500Q41 589 44 672Q47 751 83 813Q119 875 182 911Q245 947 329 947Q375 947 419 936Q463 925 502.500 914Q542 903 573 903Q609 903 628 914.500Q647 926 664 937Q681 948 708 947Q736 947 753 926.500Q770 906 767 868Q760 821 736.500 770Q713 719 682.500 661.500Q652 604 623 540.500Q594 477 574.500 407Q555 337 555 260Q555 189 584.500 158Q614 127 671 127Q727 127 789 157.500Q851 188 915.500 255.500Q980 323 1043.500 434Q1107 545 1164 706Q1120 526 1107.500 409Q1095 292 1105 225.500Q1115 159 1142.500 131.500Q1170 104 1207 104Q1249 104 1290.500 129.500Q1332 155 1370 202.500Q1408 250 1438 315.500Q1468 381 1484 460Q1493 507 1490.500 547Q1488 587 1475.500 619.500Q1463 652 1441 677Q1415 704 1402 735Q1389 766 1389 805Q1391 841 1410 873Q1429 905 1462.500 925.500Q1496 946 1540 946Q1629 946 1665.500 859.500Q1702 773 1679 620Q1660 486 1609 369.500Q1558 253 1484 164.500Q1410 76 1320 26Q1230-24 1134-24Q1038-24 976.500 21.500Q915 67 889.500 155Q864 243 874 372Q884 501 928 668Q968 817 1028 883.500Q1088 950 1155 948Z"/><path transform="translate(764.73 508.80) scale(0.017500 -0.017500)" d="M402 387Q435 478 478 547Q521 616 568 663Q615 710 660 734Q705 758 742 758Q791 758 800 720.500Q809 683 778 594L653 238Q625 157 627 98Q629 39 665.500 7.500Q702-24 776-24Q876-24 953.500 21.500Q1031 67 1071 141Q1086 170 1086 189Q1086 208 1072 215Q1060 221 1048 217Q1036 213 1017 197Q993 175 977 166Q961 157 946 157Q921 157 914 187Q907 217 933 292L1056 641Q1088 734 1089 802Q1090 870 1051 908Q1012 946 924 946Q847 946 753.500 907.500Q660 869 568 779Q476 689 402 534L423 527L577 1066Q601 1153 634 1208.500Q667 1264 708 1290Q749 1316 798 1316Q835 1316 869.500 1292.500Q904 1269 939 1238Q974 1207 1012 1183.500Q1050 1160 1094 1160Q1159 1160 1196.500 1197.500Q1234 1235 1234 1289Q1234 1355 1164 1396.500Q1094 1438 955 1438Q772 1438 638.500 1380.500Q505 1323 417 1211Q329 1099 283 936L64 164Q47 105 47.500 63Q48 21 71-1.500Q94-24 143-24Q247-24 306.500 6Q366 36 366 86Q366 115 358 136.500Q350 158 350 186Q350 206 356 234.500Q362 263 373.500 301.500Q385 340 402 387Z"/><path transform="translate(795.30 508.80) scale(0.017500 -0.017500)" d="M648 948Q788 946 885 886.500Q982 827 1023.500 719.500Q1065 612 1038 463Q1017 353 965 262Q913 171 835.500 106.500Q758 42 661 8Q564-26 453-24Q315-22 219 37Q123 96 82 204Q41 312 67 460Q88 571 140 662Q192 753 268.500 817.500Q345 882 441.500 916Q538 950 648 948ZM450 81Q486 77 521 90Q556 103 588.500 133.500Q621 164 649 211Q677 258 700.500 321Q724 384 741 462Q768 584 764.500 666.500Q761 749 732 792.500Q703 836 651 842Q615 847 581 833.500Q547 820 515 789.500Q483 759 455 712.500Q427 666 404 603Q381 540 364 461Q337 340 340 257.500Q343 175 371.500 131.500Q400 88 450 81Z"/><path transform="translate(841.21 508.80) scale(0.017500 -0.017500)" d="M405 68Q463 68 498.500 99Q534 130 534 178Q534 208 521 235Q508 262 472 293.500Q436 325 367 370Q290 420 245 461.500Q200 503 180.500 547Q161 591 161 647Q161 728 212 796Q263 864 359 905.500Q455 947 592 947Q699 947 770 919Q841 891 877.500 844.500Q914 798 914 740Q915 689 893 661.500Q871 634 833 634Q797 634 770 657Q743 680 717 739Q687 799 649 829.500Q611 860 558 860Q496 860 459 827Q422 794 422 741Q422 711 435.500 682.500Q449 654 485 619Q521 584 589 536Q673 479 718.500 435Q764 391 781 349Q798 307 798 254Q798 173 746 110.500Q694 48 599.500 12Q505-24 377-24Q260-24 182.500 7.500Q105 39 67 89.500Q29 140 29 198Q30 245 51.500 272.500Q73 300 110 300Q152 300 181 273.500Q210 247 236 191Q272 123 313 95.500Q354 68 405 68Z"/><path transform="translate(866.81 508.80) scale(0.017500 -0.017500)" d="M402 387Q435 478 478 547Q521 616 568 663Q615 710 660 734Q705 758 742 758Q791 758 800 720.500Q809 683 778 594L653 238Q625 157 627 98Q629 39 665.500 7.500Q702-24 776-24Q876-24 953.500 21.500Q1031 67 1071 141Q1086 170 1086 189Q1086 208 1072 215Q1060 221 1048 217Q1036 213 1017 197Q993 175 977 166Q961 157 946 157Q921 157 914 187Q907 217 933 292L1056 641Q1088 734 1089 802Q1090 870 1051 908Q1012 946 924 946Q847 946 753.500 907.500Q660 869 568 779Q476 689 402 534L423 527L577 1066Q601 1153 634 1208.500Q667 1264 708 1290Q749 1316 798 1316Q835 1316 869.500 1292.500Q904 1269 939 1238Q974 1207 1012 1183.500Q1050 1160 1094 1160Q1159 1160 1196.500 1197.500Q1234 1235 1234 1289Q1234 1355 1164 1396.500Q1094 1438 955 1438Q772 1438 638.500 1380.500Q505 1323 417 1211Q329 1099 283 936L64 164Q47 105 47.500 63Q48 21 71-1.500Q94-24 143-24Q247-24 306.500 6Q366 36 366 86Q366 115 358 136.500Q350 158 350 186Q350 206 356 234.500Q362 263 373.500 301.500Q385 340 402 387Z"/><path transform="translate(897.38 508.80) scale(0.017500 -0.017500)" d="M546 674L408 293Q381 217 388.500 187Q396 157 420 157Q435 157 451.500 166Q468 175 491 197Q510 214 522.500 218Q535 222 546 216Q560 209 560.500 190Q561 171 546 142Q506 67 428 22Q350-23 251-23Q176-23 139.500 8.500Q103 40 102 99Q101 158 130 240L274 630Q302 705 294.500 735Q287 765 262 765Q247 765 230.500 756.500Q214 748 190 725Q172 709 159.500 705Q147 701 136 707Q122 714 121.500 733Q121 752 136 780Q176 855 253 900.500Q330 946 427 946Q495 946 532 915Q569 884 573.500 823Q578 762 546 674ZM497 1106Q419 1106 378 1145.500Q337 1185 341 1242Q344 1288 372.500 1327.500Q401 1367 450 1391.500Q499 1416 565 1416Q647 1416 685 1376Q723 1336 718 1279Q716 1231 687 1191.500Q658 1152 609.500 1129Q561 1106 497 1106Z"/><path transform="translate(918.59 508.80) scale(0.017500 -0.017500)" d="M620 992L274-267Q263-312 269.500-333.500Q276-355 312-362L373-373Q401-378 413-390.500Q425-403 425-420Q425-442 406.500-456Q388-470 358-471L-92-481Q-117-482-131-469.500Q-145-457-145-438Q-145-420-133.500-406Q-122-392-94-378Q-62-367-44.500-355.500Q-27-344-16.500-328.500Q-6-313 1-289L363 983Q371 1014 386.500 1037.500Q402 1061 422.500 1079Q443 1097 466 1109Q489 1121 513 1127Q537 1133 558 1133Q610 1133 625 1098.500Q640 1064 620 992ZM190 661Q170 645 149 641.500Q128 638 114 653Q100 667 108 692Q116 717 141 740Q209 806 293.500 853Q378 900 478 925Q578 950 691 947Q828 944 922 887Q1016 830 1058 722Q1100 614 1079 459Q1060 310 986.500 200Q913 90 802.500 31.500Q692-27 562-24Q444-21 370.500 27.500Q297 76 274 154L351 192Q374 144 410 118Q446 92 496 90Q565 87 626.500 129Q688 171 734.500 262Q781 353 803 493Q820 605 804 681.500Q788 758 746 799Q704 840 641 845Q538 855 423 812Q308 769 190 661Z"/><path transform="translate(965.30 508.80) scale(0.017500 -0.017500)" d="M1159 754Q1159 626 1123 510Q1087 394 1022 296.500Q957 199 868 127Q779 55 673 15.500Q567-24 451-24Q344-24 283.500 25Q223 74 225 169Q226 249 260 313.500Q294 378 346 432Q398 486 455 534Q512 582 559.500 627Q607 672 631 719L630 672Q568 672 513.500 685Q459 698 411 715Q363 732 318 746Q273 760 231 761Q194 761 174.500 744.500Q155 728 154 703Q152 670 195 646Q224 630 236.500 614Q249 598 249 573Q248 537 224 517Q200 497 168 497Q115 497 81 543Q47 589 50 671Q53 750 89 812.500Q125 875 188.500 911Q252 947 335 947Q381 947 425.500 936Q470 925 509.500 914Q549 903 580 903Q615 903 633.500 914Q652 925 666.500 936.500Q681 948 704 947Q727 946 737 930Q747 914 744 879Q737 828 716.500 767.500Q696 707 670 640.500Q644 574 619 505.500Q594 437 578 369.500Q562 302 562 239Q562 174 586 144Q610 114 651 114Q697 114 749 152Q801 190 847.500 254.500Q894 319 923 397.500Q952 476 952 557Q952 602 942.500 633.500Q933 665 910 693Q888 720 876.500 744.500Q865 769 866 802Q866 842 885 874.500Q904 907 936.500 926.500Q969 946 1012 946Q1081 946 1120 898.500Q1159 851 1159 754Z"/><path transform="translate(995.71 508.80) scale(0.017500 -0.017500)" d="M546 674L408 293Q381 217 388.500 187Q396 157 420 157Q435 157 451.500 166Q468 175 491 197Q510 214 522.500 218Q535 222 546 216Q560 209 560.500 190Q561 171 546 142Q506 67 428 22Q350-23 251-23Q176-23 139.500 8.500Q103 40 102 99Q101 158 130 240L274 630Q302 705 294.500 735Q287 765 262 765Q247 765 230.500 756.500Q214 748 190 725Q172 709 159.500 705Q147 701 136 707Q122 714 121.500 733Q121 752 136 780Q176 855 253 900.500Q330 946 427 946Q495 946 532 915Q569 884 573.500 823Q578 762 546 674ZM497 1106Q419 1106 378 1145.500Q337 1185 341 1242Q344 1288 372.500 1327.500Q401 1367 450 1391.500Q499 1416 565 1416Q647 1416 685 1376Q723 1336 718 1279Q716 1231 687 1191.500Q658 1152 609.500 1129Q561 1106 497 1106Z"/><path transform="translate(1017.06 508.80) scale(0.017500 -0.017500)" d="M981 781L813 756Q805 801 781 823.500Q757 846 709 846Q652 846 596.500 812Q541 778 492 719.500Q443 661 404.500 587Q366 513 343 432.500Q320 352 318 275Q315 194 341 160Q367 126 411 126Q447 126 490.500 154Q534 182 577.500 233.500Q621 285 659 355.500Q697 426 722 511L906 1128Q954 1290 1050 1364Q1146 1438 1276 1438Q1371 1438 1417 1399.500Q1463 1361 1463 1308Q1463 1249 1430 1213Q1397 1177 1336 1177Q1301 1177 1276.500 1190.500Q1252 1204 1231.500 1221.500Q1211 1239 1189 1252.500Q1167 1266 1139 1266Q1098 1266 1070.500 1236Q1043 1206 1039 1163Q1039 1138 1047.500 1112.500Q1056 1087 1067.500 1059.500Q1079 1032 1088.500 1000.500Q1098 969 1099.500 931Q1101 893 1088 846L926 293Q904 215 911 185Q918 155 942 155Q957 155 973 163.500Q989 172 1013 195Q1032 211 1044.500 215Q1057 219 1068 213Q1082 206 1082.500 187Q1083 168 1068 139Q1042 90 999 53.500Q956 17 903-3.500Q850-24 795-24Q726-24 693 11Q660 46 660 108Q660 139 666.500 178Q673 217 687 272Q701 327 724 404L758 386Q700 247 623.500 156Q547 65 461 20.500Q375-24 287-24Q199-24 140.500 13Q82 50 57.500 124Q33 198 45 311Q58 438 116.500 553Q175 668 269 756.500Q363 845 483 895.500Q603 946 739 946Q816 946 868 924.500Q920 903 948.500 865.500Q977 828 981 781Z"/><path transform="translate(1047.13 508.80) scale(0.017500 -0.017500)" d="M208 335L199 416Q199 416 235 428Q271 440 329 460Q387 480 453.500 503Q520 526 584 548Q648 570 695 586L666 551Q675 580 680.500 619.500Q686 659 687 710Q687 772 662.500 810.500Q638 849 596 849Q555 849 513 818Q471 787 434 731Q397 675 371.500 598.500Q346 522 339 432Q327 286 380 212.500Q433 139 536 139Q595 139 647.500 160Q700 181 744 221.500Q788 262 816 318Q836 344 850.500 353.500Q865 363 882 362Q902 362 913.500 344.500Q925 327 916 289Q898 209 836.500 137Q775 65 671 20.500Q567-24 421-24Q290-24 206 22.500Q122 69 86 155Q50 241 59 360Q68 481 117 587Q166 693 246.500 774Q327 855 430 901Q533 947 649 947Q738 947 797 914.500Q856 882 887 826.500Q918 771 924 703Q926 685 933.500 672Q941 659 954 657Q969 656 976.500 648.500Q984 641 984 627Q984 609 969 593Q954 577 911 563Q869 550 801 528Q733 506 654 480.500Q575 455 496 429Q417 403 351.500 382Q286 361 247 348Q208 335 208 335Z"/><path transform="translate(1074.78 508.80) scale(0.017500 -0.017500)" d="M648 948Q788 946 885 886.500Q982 827 1023.500 719.500Q1065 612 1038 463Q1017 353 965 262Q913 171 835.500 106.500Q758 42 661 8Q564-26 453-24Q315-22 219 37Q123 96 82 204Q41 312 67 460Q88 571 140 662Q192 753 268.500 817.500Q345 882 441.500 916Q538 950 648 948ZM450 81Q486 77 521 90Q556 103 588.500 133.500Q621 164 649 211Q677 258 700.500 321Q724 384 741 462Q768 584 764.500 666.500Q761 749 732 792.500Q703 836 651 842Q615 847 581 833.500Q547 820 515 789.500Q483 759 455 712.500Q427 666 404 603Q381 540 364 461Q337 340 340 257.500Q343 175 371.500 131.500Q400 88 450 81Z"/></g>
</svg>
