<svg xmlns="http://www.w3.org/2000/svg" viewBox="0 0 416 76">
  <rect x="2" y="2" width="72" height="72" rx="16" fill="#000000" stroke="#ff3d52" stroke-width="4"/>
  <g fill="#ff3d52"><path transform="translate(12.34 51.00) scale(0.016602 -0.016602)" d="M439 0L47 0L544 1490L1017 1490L1529 0L1133 0L926 651Q876 814 829.500 997.500Q783 1181 736 1378L815 1378Q770 1180 728 996.500Q686 813 639 651ZM1192 317L385 317L385 587L1192 587Z"/><path transform="translate(37.50 51.00) scale(0.016602 -0.016602)" d="M1031 0L559 0L47 1490L444 1490L651 839Q700 677 745.500 499Q791 321 837 124L760 124Q805 322 848 499.500Q891 677 938 839L1137 1490L1529 1490Z"/></g>
  <g fill="#f4f3ee"><path transform="translate(102.00 51.00) scale(0.020508 -0.020508)" d="M440-22Q334-22 249.500 15.500Q165 53 116.500 127.500Q68 202 68 313Q68 406 102.500 469Q137 532 196.500 570Q256 608 331.500 628Q407 648 490 656Q587 666 646.500 674.500Q706 683 733.500 701.500Q761 720 761 756L761 761Q761 809 741 842Q721 875 681.500 892.500Q642 910 586 910Q528 910 485 892.500Q442 875 415 846Q388 817 375 781L100 826Q129 924 196 992Q263 1060 362.500 1096Q462 1132 587 1132Q677 1132 762 1110.500Q847 1089 914.500 1044Q982 999 1021.500 926.500Q1061 854 1061 753L1061 0L777 0L777 155L767 155Q740 103 695 63.500Q650 24 586.500 1Q523-22 440-22ZM525 189Q596 189 649.500 217Q703 245 733 293Q763 341 763 400L763 521Q750 511 723 503Q696 495 663 489Q630 483 598 478Q566 473 541 470Q486 462 444 444Q402 426 379 396.500Q356 367 356 321Q356 278 378 248.500Q400 219 438 204Q476 189 525 189Z"/><path transform="translate(125.42 51.00) scale(0.020508 -0.020508)" d="M666 0L361 0L31 1118L346 1118L443 705Q468 594 497 463.500Q526 333 550 175L516 175Q542 329 573 460.500Q604 592 631 705L733 1118L1009 1118L1109 705Q1134 592 1165 461.500Q1196 331 1223 175L1189 175Q1213 330 1240.500 460.500Q1268 591 1294 705L1391 1118L1710 1118L1378 0L1073 0L949 431Q931 496 913 574.500Q895 653 878 734.500Q861 816 843 887L896 887Q879 816 861.500 734.500Q844 653 826 574Q808 495 790 431Z"/><path transform="translate(160.16 51.00) scale(0.020508 -0.020508)" d="M633-22Q462-22 338 48Q214 118 147.500 247Q81 376 81 553Q81 726 147 856Q213 986 334 1059Q455 1132 618 1132Q728 1132 823 1097Q918 1062 990 991.500Q1062 921 1102.500 815Q1143 709 1143 565L1143 481L204 481L204 669L996 669L856 619Q856 706 829.500 770.500Q803 835 750.500 870.500Q698 906 621 906Q543 906 488.500 870Q434 834 406 772.500Q378 711 378 632L378 499Q378 402 410.500 336Q443 270 501.500 237Q560 204 638 204Q691 204 734 219Q777 234 807.500 263.500Q838 293 854 336L1126 285Q1099 193 1032 123.500Q965 54 864.500 16Q764-22 633-22Z"/><path transform="translate(184.21 51.00) scale(0.020508 -0.020508)" d="M572-22Q437-22 333 16.500Q229 55 163 128.500Q97 202 78 306L357 354Q379 276 434 237Q489 198 581 198Q667 198 716.500 230.500Q766 263 766 313Q766 357 730.500 385Q695 413 622 428L429 468Q267 501 187 580.500Q107 660 107 785Q107 893 166 970.500Q225 1048 330 1090Q435 1132 577 1132Q709 1132 806 1095.500Q903 1059 963 992Q1023 925 1043 834L777 787Q760 844 711.500 880.500Q663 917 581 917Q507 917 457 886Q407 855 407 803Q407 761 439.500 732Q472 703 551 687L752 647Q914 614 993 539.500Q1072 465 1072 345Q1072 235 1008 152.500Q944 70 831.500 24Q719-22 572-22Z"/><path transform="translate(206.77 51.00) scale(0.020508 -0.020508)" d="M628-22Q460-22 337 50.500Q214 123 147.500 252.500Q81 382 81 554Q81 728 147.500 857.500Q214 987 337 1059.500Q460 1132 628 1132Q797 1132 919.500 1059.500Q1042 987 1108.500 857.500Q1175 728 1175 554Q1175 382 1108.500 252.500Q1042 123 919.500 50.500Q797-22 628-22ZM628 214Q708 214 762 258.500Q816 303 843 380.500Q870 458 870 555Q870 654 843 731Q816 808 762 852Q708 896 628 896Q548 896 494.500 852Q441 808 414 731Q387 654 387 555Q387 458 414 380.500Q441 303 494.500 258.500Q548 214 628 214Z"/><path transform="translate(231.56 51.00) scale(0.020508 -0.020508)" d="M428 0L128 0L128 1118L406 1118L421 840L399 840Q425 943 475.500 1008Q526 1073 594 1104Q662 1135 737 1135Q858 1135 932 1058.500Q1006 982 1041 822L1006 822Q1031 929 1087.500 998.500Q1144 1068 1221.500 1101.500Q1299 1135 1384 1135Q1487 1135 1567.500 1090Q1648 1045 1694.500 960.500Q1741 876 1741 754L1741 0L1441 0L1441 697Q1441 792 1389.500 838Q1338 884 1263 884Q1207 884 1165.500 859.500Q1124 835 1101.500 791Q1079 747 1079 688L1079 0L789 0L789 705Q789 787 740.500 835.500Q692 884 615 884Q562 884 519.500 860Q477 836 452.500 789.500Q428 743 428 676Z"/><path transform="translate(268.92 51.00) scale(0.020508 -0.020508)" d="M633-22Q462-22 338 48Q214 118 147.500 247Q81 376 81 553Q81 726 147 856Q213 986 334 1059Q455 1132 618 1132Q728 1132 823 1097Q918 1062 990 991.500Q1062 921 1102.500 815Q1143 709 1143 565L1143 481L204 481L204 669L996 669L856 619Q856 706 829.500 770.500Q803 835 750.500 870.500Q698 906 621 906Q543 906 488.500 870Q434 834 406 772.500Q378 711 378 632L378 499Q378 402 410.500 336Q443 270 501.500 237Q560 204 638 204Q691 204 734 219Q777 234 807.500 263.500Q838 293 854 336L1126 285Q1099 193 1032 123.500Q965 54 864.500 16Q764-22 633-22Z"/></g>
  <g fill="#ff3d52"><path transform="translate(294.78 51.00) scale(0.021000 -0.021000)" d="M178-18Q104-18 64 20Q24 58 28 115Q31 161 59.500 200.500Q88 240 138 263.500Q188 287 254 287Q331 287 366.500 248Q402 209 398 150Q396 105 368 67Q340 29 291.500 5.500Q243-18 178-18Z"/><path transform="translate(305.78 51.00) scale(0.021000 -0.021000)" d="M1159 754Q1159 626 1123 510Q1087 394 1022 296.500Q957 199 868 127Q779 55 673 15.500Q567-24 451-24Q344-24 283.500 25Q223 74 225 169Q226 249 260 313.500Q294 378 346 432Q398 486 455 534Q512 582 559.500 627Q607 672 631 719L630 672Q568 672 513.500 685Q459 698 411 715Q363 732 318 746Q273 760 231 761Q194 761 174.500 744.500Q155 728 154 703Q152 670 195 646Q224 630 236.500 614Q249 598 249 573Q248 537 224 517Q200 497 168 497Q115 497 81 543Q47 589 50 671Q53 750 89 812.500Q125 875 188.500 911Q252 947 335 947Q381 947 425.500 936Q470 925 509.500 914Q549 903 580 903Q615 903 633.500 914Q652 925 666.500 936.500Q681 948 704 947Q727 946 737 930Q747 914 744 879Q737 828 716.500 767.500Q696 707 670 640.500Q644 574 619 505.500Q594 437 578 369.500Q562 302 562 239Q562 174 586 144Q610 114 651 114Q697 114 749 152Q801 190 847.500 254.500Q894 319 923 397.500Q952 476 952 557Q952 602 942.500 633.500Q933 665 910 693Q888 720 876.500 744.500Q865 769 866 802Q866 842 885 874.500Q904 907 936.500 926.500Q969 946 1012 946Q1081 946 1120 898.500Q1159 851 1159 754Z"/><path transform="translate(330.52 51.00) scale(0.021000 -0.021000)" d="M546 674L408 293Q381 217 388.500 187Q396 157 420 157Q435 157 451.500 166Q468 175 491 197Q510 214 522.500 218Q535 222 546 216Q560 209 560.500 190Q561 171 546 142Q506 67 428 22Q350-23 251-23Q176-23 139.500 8.500Q103 40 102 99Q101 158 130 240L274 630Q302 705 294.500 735Q287 765 262 765Q247 765 230.500 756.500Q214 748 190 725Q172 709 159.500 705Q147 701 136 707Q122 714 121.500 733Q121 752 136 780Q176 855 253 900.500Q330 946 427 946Q495 946 532 915Q569 884 573.500 823Q578 762 546 674ZM497 1106Q419 1106 378 1145.500Q337 1185 341 1242Q344 1288 372.500 1327.500Q401 1367 450 1391.500Q499 1416 565 1416Q647 1416 685 1376Q723 1336 718 1279Q716 1231 687 1191.500Q658 1152 609.500 1129Q561 1106 497 1106Z"/><path transform="translate(344.38 51.00) scale(0.021000 -0.021000)" d="M981 781L813 756Q805 801 781 823.500Q757 846 709 846Q652 846 596.500 812Q541 778 492 719.500Q443 661 404.500 587Q366 513 343 432.500Q320 352 318 275Q315 194 341 160Q367 126 411 126Q447 126 490.500 154Q534 182 577.500 233.500Q621 285 659 355.500Q697 426 722 511L906 1128Q954 1290 1050 1364Q1146 1438 1276 1438Q1371 1438 1417 1399.500Q1463 1361 1463 1308Q1463 1249 1430 1213Q1397 1177 1336 1177Q1301 1177 1276.500 1190.500Q1252 1204 1231.500 1221.500Q1211 1239 1189 1252.500Q1167 1266 1139 1266Q1098 1266 1070.500 1236Q1043 1206 1039 1163Q1039 1138 1047.500 1112.500Q1056 1087 1067.500 1059.500Q1079 1032 1088.500 1000.500Q1098 969 1099.500 931Q1101 893 1088 846L926 293Q904 215 911 185Q918 155 942 155Q957 155 973 163.500Q989 172 1013 195Q1032 211 1044.500 215Q1057 219 1068 213Q1082 206 1082.500 187Q1083 168 1068 139Q1042 90 999 53.500Q956 17 903-3.500Q850-24 795-24Q726-24 693 11Q660 46 660 108Q660 139 666.500 178Q673 217 687 272Q701 327 724 404L758 386Q700 247 623.500 156Q547 65 461 20.500Q375-24 287-24Q199-24 140.500 13Q82 50 57.500 124Q33 198 45 311Q58 438 116.500 553Q175 668 269 756.500Q363 845 483 895.500Q603 946 739 946Q816 946 868 924.500Q920 903 948.500 865.500Q977 828 981 781Z"/><path transform="translate(368.70 51.00) scale(0.021000 -0.021000)" d="M208 335L199 416Q199 416 235 428Q271 440 329 460Q387 480 453.500 503Q520 526 584 548Q648 570 695 586L666 551Q675 580 680.500 619.500Q686 659 687 710Q687 772 662.500 810.500Q638 849 596 849Q555 849 513 818Q471 787 434 731Q397 675 371.500 598.500Q346 522 339 432Q327 286 380 212.500Q433 139 536 139Q595 139 647.500 160Q700 181 744 221.500Q788 262 816 318Q836 344 850.500 353.500Q865 363 882 362Q902 362 913.500 344.500Q925 327 916 289Q898 209 836.500 137Q775 65 671 20.500Q567-24 421-24Q290-24 206 22.500Q122 69 86 155Q50 241 59 360Q68 481 117 587Q166 693 246.500 774Q327 855 430 901Q533 947 649 947Q738 947 797 914.500Q856 882 887 826.500Q918 771 924 703Q926 685 933.500 672Q941 659 954 657Q969 656 976.500 648.500Q984 641 984 627Q984 609 969 593Q954 577 911 563Q869 550 801 528Q733 506 654 480.500Q575 455 496 429Q417 403 351.500 382Q286 361 247 348Q208 335 208 335Z"/><path transform="translate(390.12 51.00) scale(0.021000 -0.021000)" d="M648 948Q788 946 885 886.500Q982 827 1023.500 719.500Q1065 612 1038 463Q1017 353 965 262Q913 171 835.500 106.500Q758 42 661 8Q564-26 453-24Q315-22 219 37Q123 96 82 204Q41 312 67 460Q88 571 140 662Q192 753 268.500 817.500Q345 882 441.500 916Q538 950 648 948ZM450 81Q486 77 521 90Q556 103 588.500 133.500Q621 164 649 211Q677 258 700.500 321Q724 384 741 462Q768 584 764.500 666.500Q761 749 732 792.500Q703 836 651 842Q615 847 581 833.500Q547 820 515 789.500Q483 759 455 712.500Q427 666 404 603Q381 540 364 461Q337 340 340 257.500Q343 175 371.500 131.500Q400 88 450 81Z"/></g>
</svg>
