<svg xmlns="http://www.w3.org/2000/svg" viewBox="0 0 76 76">
  <rect x="2" y="2" width="72" height="72" rx="16" fill="#000000" stroke="#ff3d52" stroke-width="4"/>
  <g fill="#ff3d52"><path transform="translate(12.34 51.00) scale(0.016602 -0.016602)" d="M439 0L47 0L544 1490L1017 1490L1529 0L1133 0L926 651Q876 814 829.500 997.500Q783 1181 736 1378L815 1378Q770 1180 728 996.500Q686 813 639 651ZM1192 317L385 317L385 587L1192 587Z"/><path transform="translate(37.50 51.00) scale(0.016602 -0.016602)" d="M1031 0L559 0L47 1490L444 1490L651 839Q700 677 745.500 499Q791 321 837 124L760 124Q805 322 848 499.500Q891 677 938 839L1137 1490L1529 1490Z"/></g>
</svg>
