<svg xmlns="http://www.w3.org/2000/svg" viewBox="0 0 76 76">
  <rect x="3" y="3" width="70" height="70" rx="16" fill="#000000" stroke="#ff3d52" stroke-width="6"/>
  <g fill="#ff3d52"><path transform="translate(12.34 51.00)" d="M7.288 0L0.780 0L9.031-24.736L16.884-24.736L25.384 0L18.810 0L15.373-10.808Q14.543-13.514 13.771-16.560Q12.999-19.606 12.219-22.877L13.530-22.877Q12.783-19.590 12.086-16.543Q11.389-13.497 10.608-10.808L7.288 0M19.789-5.263L6.392-5.263L6.392-9.745L19.789-9.745"/><path transform="translate(37.50 51.00)" d="M17.116 0L9.280 0L0.780-24.736L7.371-24.736L10.808-13.929Q11.621-11.239 12.376-8.284Q13.132-5.329 13.896-2.059L12.617-2.059Q13.364-5.346 14.078-8.292Q14.792-11.239 15.572-13.929L18.876-24.736L25.384-24.736"/></g>
</svg>
